<?xml version="1.0" encoding="utf-8"?>
<!-- Generator: Adobe Illustrator 25.4.1, SVG Export Plug-In . SVG Version: 6.00 Build 0)  -->
<svg version="1.1" id="Capa_1" xmlns="http://www.w3.org/2000/svg" xmlns:xlink="http://www.w3.org/1999/xlink" x="0px" y="0px"
	 viewBox="0 0 669.9 173.3" style="enable-background:new 0 0 669.9 173.3;" xml:space="preserve">
<style type="text/css">
	.st0{fill:#001689;}
	.st1{fill:#FFFFFF;}
</style>
<g>
	<path class="st0" d="M666.1,151.1c0,9.7-7.9,17.6-17.6,17.6H21.3c-9.7,0-17.6-7.9-17.6-17.6V22.3c0-9.7,7.9-17.6,17.6-17.6h627.2
		c9.7,0,17.6,7.9,17.6,17.6V151.1z"/>
	<g>
		<path class="st1" d="M92.7,76.1h39.1V54.8l-15.3-16.2H54l-16.7,19v63L54,137.7h63.4l14.4-16.7V97H92.9v12c0,0,0.5,6.5-5.5,6.5
			c-6,0-6-6.9-6-6.9V65.9c0,0,1.2-5.3,5.8-5.3c4.6,0,5.8,3.5,5.8,5.3L92.7,76.1z"/>
		<path class="st1" d="M143.2,37.9v82.9l16.4,16.7h63.2l14.6-16.4V38.2h-41v67.1c0,0,0.5,5.3-6.2,5.3c-6.7,0-6.5-3.5-6.5-6V37.9
			H143.2z"/>
		<rect x="251.3" y="38.2" class="st1" width="44.2" height="99.5"/>
		<g>
			<g>
				<path class="st1" d="M384.4,38.2h-77.8v99.5h77.3l16.9-18.7V54.4L384.4,38.2z M359.6,107.1c-0.2,4.4-4.9,5.3-4.9,5.3h-6.2V58.7
					h5.5c5.6,0.2,5.6,5.8,5.6,5.8V107.1z"/>
			</g>
		</g>
		<polygon class="st1" points="506.6,38.4 412.6,38.4 412.6,137.5 507.1,137.5 507.1,109 456.6,109 456.6,100.9 506.6,100.9 
			506.6,73.9 456.6,73.9 456.6,65.6 506.6,65.6 		"/>
		<polygon class="st1" points="517.9,38.2 517.9,68.7 535.5,87 517.9,104.8 517.9,137.9 551.3,137.9 566.8,118.7 581.4,137.5 
			612.4,137.5 612.4,106 593.7,86.8 611.7,70.3 611.7,38.4 582.5,38.4 564.9,58.1 548,37.9 		"/>
		<g>
			<path class="st1" d="M624,75.7c6.6,0,12.4,4.7,12.4,12c0,7.4-5.8,12.1-12.4,12.1c-6.6,0-12.4-4.7-12.4-12.1
				C611.6,80.4,617.5,75.7,624,75.7z M624,97.3c5,0,9.1-4,9.1-9.5c0-5.5-4.1-9.5-9.1-9.5c-5.1,0-9.1,4-9.1,9.5
				C614.9,93.3,619,97.3,624,97.3z M619.2,81h5.1c3.4,0,5.3,1.1,5.3,4c0,2.5-1.6,3.5-3.6,3.6l3.6,5.9h-2.8l-3.3-5.8h-1.7v5.8h-2.7
				V81z M621.9,86.6h2.4c1.5,0,2.7-0.2,2.7-1.9c0-1.5-1.6-1.7-2.8-1.7h-2.3V86.6z"/>
		</g>
	</g>
</g>
</svg>
